<svg width="491" height="491" viewBox="0 0 491 491" fill="none" xmlns="http://www.w3.org/2000/svg">
<path fill-rule="evenodd" clip-rule="evenodd" d="M245.5 491C381.086 491 491 381.086 491 245.5C491 109.914 381.086 0 245.5 0C109.914 0 0 109.914 0 245.5C0 310.329 25.1286 369.29 66.1769 413.172L35.4587 491H242.459L242.436 490.981C243.456 490.994 244.477 491 245.5 491ZM206.487 296.974C226.638 296.974 242.974 280.638 242.974 260.487C242.974 240.336 226.638 224 206.487 224C186.336 224 170 240.336 170 260.487C170 280.638 186.336 296.974 206.487 296.974ZM292.487 296.974C312.638 296.974 328.974 280.638 328.974 260.487C328.974 240.336 312.638 224 292.487 224C272.336 224 256 240.336 256 260.487C256 280.638 272.336 296.974 292.487 296.974Z" fill="white"/>
</svg>
